<svg width="108" height="109" viewBox="0 0 108 109" fill="none" xmlns="http://www.w3.org/2000/svg">
<path d="M62.0149 15.0271L61.7223 12.7734H61.7431C62.9251 12.7734 63.8833 11.8203 63.8833 10.6445V5.53516C63.8833 2.48316 61.387 0 58.3188 0H49.163C46.0948 0 43.5984 2.48316 43.5984 5.53516V10.6445C43.5984 11.8203 44.5566 12.7734 45.7386 12.7734H45.7594L45.4668 15.0271C44.462 22.7693 43.9346 30.6475 43.8981 38.4591C38.9897 43.5708 36.1912 50.4823 36.1912 57.5648V102.613C36.1912 106.135 39.0715 109 42.6118 109H64.87C68.4103 109 71.2906 106.135 71.2906 102.613V57.5648C71.2906 50.4823 68.492 43.5708 63.5837 38.4589C63.5471 30.6475 63.0197 22.7693 62.0149 15.0271ZM47.8788 5.53516C47.8788 4.8307 48.4548 4.25781 49.163 4.25781H58.3188C59.027 4.25781 59.6029 4.8307 59.6029 5.53516V8.51562H47.8788V5.53516ZM57.4066 12.7734L57.7698 15.5721C58.1805 18.7365 58.5054 21.9245 58.752 25.1211H48.7298C48.9763 21.9245 49.3012 18.7365 49.7119 15.5721L50.0751 12.7734H57.4066ZM67.0102 102.613C67.0102 103.787 66.0501 104.742 64.87 104.742H42.6118C41.4317 104.742 40.4716 103.787 40.4716 102.613V91.4523C43.6922 95.1547 48.4443 97.5039 53.7409 97.5039C59.0375 97.5039 63.7896 95.1547 67.0102 91.4523V102.613ZM67.0102 62.5828C66.1684 61.6112 65.2167 60.7258 64.163 59.9511C63.2126 59.2521 61.8724 59.4518 61.17 60.3977C60.4673 61.3432 60.6683 62.6763 61.619 63.375C64.9947 65.8573 67.0102 69.8281 67.0102 73.9976V80.0469C67.0102 87.325 61.0576 93.2461 53.7409 93.2461C46.4241 93.2461 40.4716 87.325 40.4716 80.0469V73.9976C40.4716 69.8286 42.4868 65.8577 45.8621 63.3756C46.8126 62.6767 47.0136 61.3436 46.3109 60.3981C45.6081 59.4527 44.2681 59.2528 43.3176 59.9517C42.2644 60.726 41.3129 61.6114 40.4716 62.5826V57.5646C40.4716 51.3169 43.0454 45.2267 47.5334 40.8558C47.9445 40.4554 48.1763 39.907 48.1763 39.3345C48.1763 36.0241 48.272 32.7002 48.4518 29.3785H59.03C59.2095 32.7002 59.3054 36.0241 59.3054 39.3345C59.3054 39.907 59.5372 40.4552 59.9483 40.8558C64.4363 45.2269 67.0102 51.3171 67.0102 57.5648V62.5828Z" fill="#DA7126"/>
<path d="M53.7838 61C54.4448 61 55.0932 60.7325 55.5607 60.2675C56.0281 59.8025 56.2971 59.1575 56.2971 58.5C56.2971 57.84 56.0281 57.1975 55.5607 56.73C55.0932 56.265 54.4448 56 53.7838 56C53.1228 56 52.4744 56.265 52.0069 56.73C51.5394 57.1975 51.2705 57.84 51.2705 58.5C51.2705 59.1575 51.5394 59.8 52.0069 60.2675C52.4744 60.7325 53.1228 61 53.7838 61Z" fill="#29ACFF"/>
<path d="M61.3799 69H46.1884C45.6643 69 45.239 69.4231 45.239 69.9444V85.0556C45.239 85.5769 45.6643 86 46.1884 86H61.3799C61.9039 86 62.3293 85.5769 62.3293 85.0556V69.9444C62.3293 69.4231 61.9039 69 61.3799 69ZM60.4302 84.1115H47.1375V70.889H60.4302V84.1115Z" fill="#29ACFF" stroke="#29ACFF" stroke-width="1.2"/>
<path d="M99.9159 20.097L99.6609 18.1328H99.679C100.709 18.1328 101.544 17.3021 101.544 16.2773V11.8242C101.544 9.16422 99.3686 7 96.6945 7H88.7146C86.0405 7 83.8648 9.16422 83.8648 11.8242V16.2773C83.8648 17.3021 84.6999 18.1328 85.7301 18.1328H85.7482L85.4932 20.097C84.6175 26.8448 84.1578 33.7111 84.1259 40.5194C79.848 44.9746 77.4089 50.9984 77.4089 57.1711V96.4336C77.4089 99.5029 79.9193 102 83.0049 102H102.404C105.49 102 108 99.5029 108 96.4336V57.1711C108 50.9984 105.561 44.9746 101.283 40.5192C101.251 33.7111 100.792 26.8448 99.9159 20.097ZM87.5954 11.8242C87.5954 11.2102 88.0974 10.7109 88.7146 10.7109H96.6945C97.3117 10.7109 97.8137 11.2102 97.8137 11.8242V14.4219H87.5954V11.8242ZM95.8995 18.1328L96.216 20.572C96.574 23.33 96.8571 26.1085 97.072 28.8945H88.3371C88.552 26.1085 88.8351 23.33 89.1931 20.572L89.5096 18.1328H95.8995ZM104.27 96.4336C104.27 97.4567 103.433 98.2891 102.404 98.2891H83.0049C81.9764 98.2891 81.1396 97.4567 81.1396 96.4336V86.7061C83.9465 89.933 88.0883 91.9805 92.7046 91.9805C97.3208 91.9805 101.463 89.933 104.27 86.7061V96.4336ZM104.27 61.5447C103.536 60.6978 102.706 59.9261 101.788 59.2509C100.96 58.6418 99.7916 58.8158 99.1794 59.6402C98.5671 60.4642 98.7422 61.6261 99.5708 62.2351C102.513 64.3986 104.27 67.8594 104.27 71.4933V76.7656C104.27 83.1089 99.0815 88.2695 92.7046 88.2695C86.3276 88.2695 81.1396 83.1089 81.1396 76.7656V71.4933C81.1396 67.8597 82.896 64.3989 85.8378 62.2356C86.6661 61.6265 86.8413 60.4646 86.2289 59.6406C85.6163 58.8166 84.4485 58.6423 83.6201 59.2515C82.7022 59.9263 81.8728 60.698 81.1396 61.5445V57.1709C81.1396 51.7257 83.3828 46.4178 87.2944 42.6083C87.6527 42.2593 87.8547 41.7813 87.8547 41.2824C87.8547 38.3971 87.9381 35.5002 88.0948 32.6051H97.3143C97.4708 35.5002 97.5544 38.3971 97.5544 41.2824C97.5544 41.7813 97.7564 42.2591 98.1147 42.6083C102.026 46.4179 104.27 51.7259 104.27 57.1711V61.5447Z" fill="#DA7126"/>
<path d="M92.7044 59.9904C93.195 59.9904 93.6763 59.7918 94.0232 59.4467C94.3702 59.1016 94.5697 58.6229 94.5697 58.1349C94.5697 57.645 94.3702 57.1682 94.0232 56.8212C93.6763 56.4761 93.195 56.2794 92.7044 56.2794C92.2139 56.2794 91.7326 56.4761 91.3856 56.8212C91.0387 57.1682 90.8391 57.645 90.8391 58.1349C90.8391 58.6229 91.0387 59.0997 91.3856 59.4467C91.7326 59.7918 92.2139 59.9904 92.7044 59.9904Z" fill="#FF0028"/>
<path d="M85.5443 80.6315C85.4201 80.4036 85.4201 80.1227 85.5443 79.8947V80.6315ZM85.5443 80.6315L85.5443 80.6315L85.5443 80.6315ZM85.5443 80.6315C85.6687 80.8595 85.8989 81 86.1481 81M85.5443 80.6315L86.1481 81M86.1481 81H99.8339M86.1481 81H99.8339M99.8339 81C100.083 81 100.313 80.8597 100.438 80.6315L99.8339 81ZM100.657 79.7752L100.657 79.7749L93.8142 67.2487C93.8142 67.2487 93.8142 67.2487 93.8142 67.2486C93.6482 66.9447 93.3361 66.75 92.991 66.75C92.6459 66.75 92.3337 66.9444 92.1677 67.2488L85.3249 79.7749L85.3248 79.7752C85.16 80.0777 85.16 80.4486 85.3248 80.7511L85.3249 80.7513C85.4907 81.0553 85.8027 81.25 86.1481 81.25H99.8339C100.179 81.25 100.491 81.0556 100.657 80.7512L100.657 80.7511C100.822 80.4486 100.822 80.0779 100.657 79.7752ZM98.2049 79.2765H87.7771L92.991 69.7322L98.2049 79.2765Z" fill="#FF0028" stroke="#FF0028" stroke-width="0.5"/>
<path d="M22.5069 21.097L22.2519 19.1328H22.27C23.3003 19.1328 24.1354 18.3021 24.1354 17.2773V12.8242C24.1354 10.1642 21.9597 8 19.2855 8H11.3057C8.63158 8 6.45587 10.1642 6.45587 12.8242V17.2773C6.45587 18.3021 7.29097 19.1328 8.32119 19.1328H8.33928L8.08429 21.097C7.20852 27.8448 6.74891 34.7111 6.71701 41.5194C2.43909 45.9746 0 51.9984 0 58.1711V97.4336C0 100.503 2.51035 103 5.59596 103H24.9953C28.0809 103 30.5912 100.503 30.5912 97.4336V58.1711C30.5912 51.9984 28.1521 45.9746 23.8742 41.5192C23.8423 34.7111 23.3827 27.8448 22.5069 21.097ZM10.1865 12.8242C10.1865 12.2102 10.6885 11.7109 11.3057 11.7109H19.2855C19.9028 11.7109 20.4047 12.2102 20.4047 12.8242V15.4219H10.1865V12.8242ZM18.4905 19.1328L18.8071 21.572C19.165 24.33 19.4482 27.1085 19.6631 29.8945H10.9282C11.143 27.1085 11.4262 24.33 11.7842 21.572L12.1007 19.1328H18.4905ZM26.8606 97.4336C26.8606 98.4567 26.0238 99.2891 24.9953 99.2891H5.59596C4.56742 99.2891 3.73064 98.4567 3.73064 97.4336V87.7061C6.53757 90.933 10.6793 92.9805 15.2956 92.9805C19.9119 92.9805 24.0537 90.933 26.8606 87.7061V97.4336ZM26.8606 62.5447C26.127 61.6978 25.2975 60.9261 24.3792 60.2509C23.5508 59.6418 22.3827 59.8158 21.7705 60.6402C21.1581 61.4642 21.3333 62.6261 22.1619 63.2351C25.104 65.3986 26.8606 68.8594 26.8606 72.4933V77.7656C26.8606 84.1089 21.6726 89.2695 15.2956 89.2695C8.91865 89.2695 3.73064 84.1089 3.73064 77.7656V72.4933C3.73064 68.8597 5.48702 65.3989 8.42882 63.2356C9.2572 62.6265 9.43236 61.4646 8.81997 60.6406C8.2074 59.8166 7.03953 59.6423 6.21114 60.2515C5.29321 60.9263 4.46389 61.698 3.73064 62.5445V58.1709C3.73064 52.7257 5.97387 47.4178 9.88544 43.6083C10.2438 43.2593 10.4458 42.7813 10.4458 42.2824C10.4458 39.3971 10.5292 36.5002 10.6859 33.6051H19.9054C20.0619 36.5002 20.1454 39.3971 20.1454 42.2824C20.1454 42.7813 20.3475 43.2591 20.7058 43.6083C24.6174 47.4179 26.8606 52.7259 26.8606 58.1711V62.5447Z" fill="#DA7126"/>
<path d="M15.2955 60.9904C15.7861 60.9904 16.2673 60.7918 16.6143 60.4467C16.9612 60.1016 17.1608 59.6229 17.1608 59.1349C17.1608 58.645 16.9612 58.1682 16.6143 57.8212C16.2673 57.4761 15.7861 57.2794 15.2955 57.2794C14.8049 57.2794 14.3237 57.4761 13.9767 57.8212C13.6298 58.1682 13.4302 58.645 13.4302 59.1349C13.4302 59.6229 13.6298 60.0997 13.9767 60.4467C14.3237 60.7918 14.8049 60.9904 15.2955 60.9904Z" fill="#A1FF41"/>
<path d="M15.0796 66.75C10.5081 66.75 6.78711 70.4495 6.78711 75C6.78711 79.5505 10.5081 83.25 15.0796 83.25C19.651 83.25 23.372 79.5505 23.372 75C23.372 70.4497 19.651 66.75 15.0796 66.75ZM15.0796 80.9724C11.7672 80.9724 9.07441 78.2919 9.07441 75.0003C9.07441 71.7086 11.7672 69.0281 15.0796 69.0281C18.392 69.0281 21.0847 71.7086 21.0847 75.0003C21.0847 78.2919 18.392 80.9724 15.0796 80.9724Z" fill="#A1FF41" stroke="#A1FF41" stroke-width="0.5"/>
</svg>
