<svg width="387" height="419" viewBox="0 0 387 419" fill="none" xmlns="http://www.w3.org/2000/svg">
<path d="M200.572 24.6099L309.469 24.6099C339.064 24.6099 363.076 48.7108 363.076 78.2168L363.076 340.669C363.076 370.264 338.975 394.276 309.469 394.276L198.8 394.276C192.154 394.276 186.838 399.593 186.838 406.238C186.838 412.884 192.154 418.2 198.8 418.2L309.469 418.2C352.266 418.2 387 383.378 387 340.669L387 78.2168C387 35.4198 352.177 0.686097 309.469 0.686097L200.572 0.686097C193.926 0.686097 188.61 6.00249 188.61 12.648C188.61 19.2935 194.015 24.6099 200.572 24.6099Z" fill="#E9E9E9"/>
<path d="M291.958 200.826L215.934 124.802C211.237 120.106 203.706 120.106 199.01 124.802C194.314 129.498 194.314 137.029 199.01 141.726L254.655 197.37L11.9614 197.37C5.3159 197.37 -0.000488281 202.687 -0.000488281 209.332C-0.000488281 215.978 5.3159 221.294 11.9614 221.294H254.655L199.01 276.939C194.314 281.635 194.314 289.167 199.01 293.863C201.314 296.167 204.415 297.407 207.427 297.407C210.44 297.407 213.541 296.255 215.845 293.863L291.869 217.839C296.654 213.054 296.654 205.434 291.958 200.826Z" fill="#E9E9E9"/>
</svg>
