<svg width="518" height="165" viewBox="0 0 518 165" fill="none" xmlns="http://www.w3.org/2000/svg">
<g filter="url(#filter0_d_55:50)">
<path d="M61.8396 161.152C50.7996 161.152 42.9756 156.304 38.3676 146.608V160H7.83956V65.104L38.3676 60.64V101.392C40.7676 96.304 43.8876 92.608 47.7276 90.304C51.5676 88 56.2236 86.848 61.6956 86.848C68.1276 86.848 74.0316 88.48 79.4076 91.744C84.8796 94.912 89.1516 99.328 92.2236 104.992C95.3916 110.656 96.9756 116.992 96.9756 124C96.9756 130.912 95.3436 137.2 92.0796 142.864C88.9116 148.528 84.5916 152.992 79.1196 156.256C73.7436 159.52 67.9836 161.152 61.8396 161.152ZM52.6236 138.4C56.5596 138.4 59.9196 136.96 62.7036 134.08C65.4876 131.2 66.8796 127.84 66.8796 124C66.8796 119.968 65.4396 116.56 62.5596 113.776C59.7756 110.992 56.4636 109.6 52.6236 109.6C48.6876 109.6 45.3276 110.992 42.5436 113.776C39.7596 116.464 38.3676 119.68 38.3676 123.424V124C38.3676 128.032 39.7596 131.44 42.5436 134.224C45.4236 137.008 48.7836 138.4 52.6236 138.4ZM145.254 161.152C137.286 161.152 130.182 159.568 123.942 156.4C117.798 153.136 112.998 148.72 109.542 143.152C106.086 137.488 104.358 131.104 104.358 124C104.358 116.704 106.134 110.224 109.686 104.56C113.238 98.896 118.038 94.528 124.086 91.456C130.134 88.384 136.854 86.848 144.246 86.848C151.35 86.848 157.398 88.432 162.39 91.6C167.478 94.672 171.27 98.896 173.766 104.272C176.262 109.552 177.51 115.504 177.51 122.128C177.51 123.856 177.414 125.104 177.222 125.872L134.022 131.488C135.174 134.848 137.046 137.296 139.638 138.832C142.23 140.272 145.638 140.992 149.862 140.992C156.39 140.992 163.446 139.312 171.03 135.952L174.63 155.248C165.702 159.184 155.91 161.152 145.254 161.152ZM155.19 113.344C153.654 107.296 150.006 104.272 144.246 104.272C140.79 104.272 138.054 105.568 136.038 108.16C134.022 110.752 132.966 114.112 132.87 118.24L155.19 113.344ZM225.269 161.152C217.301 161.152 210.197 159.568 203.957 156.4C197.813 153.136 193.013 148.72 189.557 143.152C186.101 137.488 184.373 131.104 184.373 124C184.373 116.704 186.149 110.224 189.701 104.56C193.253 98.896 198.053 94.528 204.101 91.456C210.149 88.384 216.869 86.848 224.261 86.848C231.365 86.848 237.413 88.432 242.405 91.6C247.493 94.672 251.285 98.896 253.781 104.272C256.277 109.552 257.525 115.504 257.525 122.128C257.525 123.856 257.429 125.104 257.237 125.872L214.037 131.488C215.189 134.848 217.061 137.296 219.653 138.832C222.245 140.272 225.653 140.992 229.877 140.992C236.405 140.992 243.461 139.312 251.045 135.952L254.645 155.248C245.717 159.184 235.925 161.152 225.269 161.152ZM235.205 113.344C233.669 107.296 230.021 104.272 224.261 104.272C220.805 104.272 218.069 105.568 216.053 108.16C214.037 110.752 212.981 114.112 212.885 118.24L235.205 113.344ZM267.989 88.864H298.373V103.552C300.581 97.888 303.557 93.712 307.301 91.024C311.141 88.24 315.605 86.848 320.693 86.848L324.869 110.32C315.749 110.32 309.029 111.328 304.709 113.344C300.485 115.264 298.373 118.336 298.373 122.56V160H267.989V88.864ZM339.617 160.864C334.529 160.864 330.545 159.472 327.665 156.688C324.785 153.904 323.345 150.4 323.345 146.176C323.345 141.856 324.833 138.352 327.809 135.664C330.785 132.976 334.721 131.632 339.617 131.632C344.417 131.632 348.305 133.072 351.281 135.952C354.257 138.736 355.745 142.144 355.745 146.176C355.745 150.688 354.353 154.288 351.569 156.976C348.785 159.568 344.801 160.864 339.617 160.864ZM393.317 161.152C385.253 161.152 378.965 158.56 374.453 153.376C369.941 148.192 367.685 141.136 367.685 132.208V87.856H398.213V130.912C398.213 133.12 398.789 134.848 399.941 136.096C401.189 137.248 402.773 137.824 404.693 137.824C406.613 137.824 408.581 137.248 410.597 136.096L412.181 156.112C410.069 157.744 407.285 158.992 403.829 159.856C400.469 160.72 396.965 161.152 393.317 161.152ZM382.949 77.056C378.437 77.056 374.597 75.664 371.429 72.88C368.357 70 366.821 66.496 366.821 62.368C366.821 58.24 368.453 54.784 371.717 52C374.981 49.216 378.725 47.824 382.949 47.824C387.365 47.824 391.157 49.264 394.325 52.144C397.589 55.024 399.221 58.432 399.221 62.368C399.221 66.592 397.589 70.096 394.325 72.88C391.061 75.664 387.269 77.056 382.949 77.056ZM458.439 161.152C450.375 161.152 443.175 159.568 436.839 156.4C430.599 153.232 425.703 148.864 422.151 143.296C418.695 137.632 416.967 131.152 416.967 123.856C416.967 116.56 418.743 110.128 422.295 104.56C425.847 98.896 430.743 94.528 436.983 91.456C443.319 88.384 450.519 86.848 458.583 86.848C466.743 86.848 473.943 88.432 480.183 91.6C486.519 94.672 491.415 98.992 494.871 104.56C498.327 110.128 500.055 116.56 500.055 123.856C500.055 131.248 498.279 137.776 494.727 143.44C491.271 149.008 486.375 153.376 480.039 156.544C473.799 159.616 466.599 161.152 458.439 161.152ZM458.727 139.552C462.663 139.552 465.879 138.112 468.375 135.232C470.967 132.256 472.263 128.464 472.263 123.856C472.263 119.248 470.967 115.504 468.375 112.624C465.879 109.648 462.663 108.16 458.727 108.16C454.791 108.16 451.527 109.648 448.935 112.624C446.439 115.504 445.191 119.248 445.191 123.856C445.191 128.464 446.439 132.256 448.935 135.232C451.527 138.112 454.791 139.552 458.727 139.552Z" fill="#DA7126"/>
<path d="M38.3676 146.608L38.8192 146.393L37.8676 146.608H38.3676ZM38.3676 160V160.5H38.8676V160H38.3676ZM7.83956 160H7.33956V160.5H7.83956V160ZM7.83956 65.104L7.76722 64.6093L7.33956 64.6718V65.104H7.83956ZM38.3676 60.64H38.8676V60.0616L38.2952 60.1453L38.3676 60.64ZM38.3676 101.392H37.8676L38.8198 101.605L38.3676 101.392ZM47.7276 90.304L47.4703 89.8753L47.7276 90.304ZM79.4076 91.744L79.148 92.1715L79.1571 92.1767L79.4076 91.744ZM92.2236 104.992L91.784 105.23L91.7872 105.236L92.2236 104.992ZM92.0796 142.864L91.6463 142.614L91.6432 142.62L92.0796 142.864ZM79.1196 156.256L78.8634 155.827L78.8601 155.829L79.1196 156.256ZM62.7036 134.08L63.0631 134.428L62.7036 134.08ZM62.5596 113.776L62.206 114.13L62.2121 114.135L62.5596 113.776ZM42.5436 113.776L42.8909 114.136L42.8971 114.13L42.5436 113.776ZM42.5436 134.224L42.19 134.578L42.1961 134.583L42.5436 134.224ZM61.8396 160.652C56.3939 160.652 51.7733 159.457 47.9549 157.091C44.1374 154.726 41.0889 151.169 38.8192 146.393L37.916 146.823C40.2542 151.743 43.4217 155.458 47.4282 157.941C51.4338 160.423 56.2452 161.652 61.8396 161.652V160.652ZM37.8676 146.608V160H38.8676V146.608H37.8676ZM38.3676 159.5H7.83956V160.5H38.3676V159.5ZM8.33956 160V65.104H7.33956V160H8.33956ZM7.91191 65.5987L38.4399 61.1347L38.2952 60.1453L7.76722 64.6093L7.91191 65.5987ZM37.8676 60.64V101.392H38.8676V60.64H37.8676ZM38.8198 101.605C41.1884 96.5839 44.2491 92.9742 47.9848 90.7327L47.4703 89.8753C43.526 92.2418 40.3468 96.0241 37.9153 101.179L38.8198 101.605ZM47.9848 90.7327C51.7315 88.4847 56.2941 87.348 61.6956 87.348V86.348C56.153 86.348 51.4036 87.5153 47.4703 89.8753L47.9848 90.7327ZM61.6956 87.348C68.0382 87.348 73.8521 88.956 79.1481 92.1714L79.6671 91.3166C74.211 88.004 68.2169 86.348 61.6956 86.348V87.348ZM79.1571 92.1767C84.5478 95.2977 88.7551 99.6457 91.784 105.23L92.6631 104.754C89.5481 99.0103 85.2114 94.5263 79.6581 91.3113L79.1571 92.1767ZM91.7872 105.236C94.9102 110.82 96.4756 117.07 96.4756 124H97.4756C97.4756 116.914 95.873 110.492 92.6599 104.748L91.7872 105.236ZM96.4756 124C96.4756 130.83 94.8641 137.031 91.6464 142.614L92.5128 143.114C95.8231 137.369 97.4756 130.994 97.4756 124H96.4756ZM91.6432 142.62C88.5172 148.209 84.2587 152.608 78.8634 155.827L79.3757 156.685C84.9244 153.376 89.306 148.847 92.5159 143.108L91.6432 142.62ZM78.8601 155.829C73.5604 159.046 67.8898 160.652 61.8396 160.652V161.652C68.0773 161.652 73.9268 159.994 79.3791 156.683L78.8601 155.829ZM52.6236 138.9C56.6978 138.9 60.1867 137.403 63.0631 134.428L62.3441 133.732C59.6524 136.517 56.4213 137.9 52.6236 137.9V138.9ZM63.0631 134.428C65.9329 131.459 67.3796 127.976 67.3796 124H66.3796C66.3796 127.704 65.0423 130.941 62.3441 133.732L63.0631 134.428ZM67.3796 124C67.3796 119.833 65.8853 116.295 62.9071 113.417L62.2121 114.135C64.9939 116.825 66.3796 120.103 66.3796 124H67.3796ZM62.9131 113.422C60.038 110.547 56.5999 109.1 52.6236 109.1V110.1C56.3272 110.1 59.5131 111.437 62.206 114.13L62.9131 113.422ZM52.6236 109.1C48.5549 109.1 45.0677 110.545 42.19 113.422L42.8971 114.13C45.5874 111.439 48.8202 110.1 52.6236 110.1V109.1ZM42.1963 113.416C39.3184 116.195 37.8676 119.539 37.8676 123.424H38.8676C38.8676 119.821 40.2008 116.733 42.8909 114.136L42.1963 113.416ZM37.8676 123.424V124H38.8676V123.424H37.8676ZM37.8676 124C37.8676 128.161 39.3097 131.697 42.19 134.578L42.8971 133.87C40.2094 131.183 38.8676 127.903 38.8676 124H37.8676ZM42.1961 134.583C45.1648 137.453 48.6478 138.9 52.6236 138.9V137.9C48.9193 137.9 45.6823 136.563 42.8911 133.865L42.1961 134.583ZM123.942 156.4L123.707 156.842L123.715 156.846L123.942 156.4ZM109.542 143.152L109.115 143.412L109.117 143.416L109.542 143.152ZM109.686 104.56L109.262 104.294L109.686 104.56ZM124.086 91.456L124.312 91.9018L124.086 91.456ZM162.39 91.6L162.122 92.0223L162.131 92.028L162.39 91.6ZM173.766 104.272L173.312 104.483L173.314 104.486L173.766 104.272ZM177.222 125.872L177.286 126.368L177.624 126.324L177.707 125.993L177.222 125.872ZM134.022 131.488L133.957 130.992L133.35 131.071L133.549 131.65L134.022 131.488ZM139.638 138.832L139.383 139.262L139.395 139.269L139.638 138.832ZM171.03 135.952L171.521 135.86L171.405 135.239L170.827 135.495L171.03 135.952ZM174.63 155.248L174.832 155.706L175.194 155.546L175.121 155.156L174.63 155.248ZM155.19 113.344L155.297 113.832L155.802 113.722L155.674 113.221L155.19 113.344ZM132.87 118.24L132.37 118.228L132.355 118.865L132.977 118.728L132.87 118.24ZM145.254 160.652C137.354 160.652 130.329 159.082 124.168 155.954L123.715 156.846C130.035 160.054 137.218 161.652 145.254 161.652V160.652ZM124.176 155.958C118.105 152.733 113.373 148.377 109.967 142.888L109.117 143.416C112.622 149.063 117.49 153.539 123.707 156.842L124.176 155.958ZM109.969 142.892C106.564 137.312 104.858 131.019 104.858 124H103.858C103.858 131.189 105.608 137.664 109.115 143.412L109.969 142.892ZM104.858 124C104.858 116.789 106.612 110.403 110.109 104.826L109.262 104.294C105.656 110.045 103.858 116.619 103.858 124H104.858ZM110.109 104.826C113.613 99.2396 118.344 94.9334 124.312 91.9018L123.859 91.0102C117.732 94.1226 112.863 98.5524 109.262 104.294L110.109 104.826ZM124.312 91.9018C130.284 88.8685 136.925 87.348 144.246 87.348V86.348C136.782 86.348 129.984 87.8995 123.859 91.0102L124.312 91.9018ZM144.246 87.348C151.274 87.348 157.225 88.9144 162.122 92.0222L162.658 91.1778C157.571 87.9496 151.425 86.348 144.246 86.348V87.348ZM162.131 92.028C167.134 95.0487 170.858 99.1971 173.312 104.483L174.219 104.061C171.681 98.5949 167.821 94.2953 162.648 91.172L162.131 92.028ZM173.314 104.486C175.774 109.69 177.01 115.568 177.01 122.128H178.01C178.01 115.44 176.749 109.414 174.218 104.058L173.314 104.486ZM177.01 122.128C177.01 123.852 176.913 125.047 176.737 125.751L177.707 125.993C177.915 125.161 178.01 123.86 178.01 122.128H177.01ZM177.157 125.376L133.957 130.992L134.086 131.984L177.286 126.368L177.157 125.376ZM133.549 131.65C134.732 135.101 136.671 137.655 139.383 139.262L139.893 138.402C137.421 136.937 135.615 134.595 134.495 131.326L133.549 131.65ZM139.395 139.269C142.086 140.764 145.587 141.492 149.862 141.492V140.492C145.689 140.492 142.373 139.78 139.881 138.395L139.395 139.269ZM149.862 141.492C156.476 141.492 163.601 139.79 171.232 136.409L170.827 135.495C163.29 138.834 156.304 140.492 149.862 140.492V141.492ZM170.538 136.044L174.138 155.34L175.121 155.156L171.521 135.86L170.538 136.044ZM174.428 154.79C165.569 158.696 155.847 160.652 145.254 160.652V161.652C155.973 161.652 165.834 159.672 174.832 155.706L174.428 154.79ZM155.674 113.221C154.889 110.127 153.549 107.753 151.621 106.155C149.689 104.554 147.216 103.772 144.246 103.772V104.772C147.035 104.772 149.267 105.502 150.983 106.925C152.703 108.351 153.955 110.513 154.705 113.467L155.674 113.221ZM144.246 103.772C140.645 103.772 137.759 105.132 135.643 107.853L136.432 108.467C138.348 106.004 140.935 104.772 144.246 104.772V103.772ZM135.643 107.853C133.546 110.549 132.468 114.021 132.37 118.228L133.37 118.252C133.464 114.203 134.498 110.955 136.432 108.467L135.643 107.853ZM132.977 118.728L155.297 113.832L155.083 112.856L132.763 117.752L132.977 118.728ZM203.957 156.4L203.723 156.842L203.731 156.846L203.957 156.4ZM189.557 143.152L189.131 143.412L189.133 143.416L189.557 143.152ZM189.701 104.56L189.278 104.294L189.701 104.56ZM204.101 91.456L204.328 91.9018L204.101 91.456ZM242.405 91.6L242.137 92.0223L242.147 92.028L242.405 91.6ZM253.781 104.272L253.328 104.483L253.329 104.486L253.781 104.272ZM257.237 125.872L257.302 126.368L257.64 126.324L257.723 125.993L257.237 125.872ZM214.037 131.488L213.973 130.992L213.366 131.071L213.564 131.65L214.037 131.488ZM219.653 138.832L219.398 139.262L219.411 139.269L219.653 138.832ZM251.045 135.952L251.537 135.86L251.421 135.239L250.843 135.495L251.045 135.952ZM254.645 155.248L254.847 155.706L255.21 155.546L255.137 155.156L254.645 155.248ZM235.205 113.344L235.313 113.832L235.817 113.722L235.69 113.221L235.205 113.344ZM212.885 118.24L212.386 118.228L212.371 118.865L212.993 118.728L212.885 118.24ZM225.269 160.652C217.369 160.652 210.344 159.082 204.184 155.954L203.731 156.846C210.05 160.054 217.234 161.652 225.269 161.652V160.652ZM204.192 155.958C198.121 152.733 193.389 148.377 189.982 142.888L189.133 143.416C192.638 149.063 197.506 153.539 203.723 156.842L204.192 155.958ZM189.984 142.892C186.58 137.312 184.873 131.019 184.873 124H183.873C183.873 131.189 185.623 137.664 189.131 143.412L189.984 142.892ZM184.873 124C184.873 116.789 186.627 110.403 190.125 104.826L189.278 104.294C185.671 110.045 183.873 116.619 183.873 124H184.873ZM190.125 104.826C193.628 99.2396 198.359 94.9334 204.328 91.9018L203.875 91.0102C197.747 94.1226 192.879 98.5524 189.278 104.294L190.125 104.826ZM204.328 91.9018C210.3 88.8685 216.941 87.348 224.261 87.348V86.348C216.798 86.348 209.999 87.8995 203.875 91.0102L204.328 91.9018ZM224.261 87.348C231.29 87.348 237.241 88.9144 242.138 92.0222L242.673 91.1778C237.586 87.9496 231.441 86.348 224.261 86.348V87.348ZM242.147 92.028C247.15 95.0487 250.874 99.1971 253.328 104.483L254.235 104.061C251.697 98.5949 247.837 94.2953 242.664 91.172L242.147 92.028ZM253.329 104.486C255.79 109.69 257.025 115.568 257.025 122.128H258.025C258.025 115.44 256.765 109.414 254.233 104.058L253.329 104.486ZM257.025 122.128C257.025 123.852 256.928 125.047 256.752 125.751L257.723 125.993C257.93 125.161 258.025 123.86 258.025 122.128H257.025ZM257.173 125.376L213.973 130.992L214.102 131.984L257.302 126.368L257.173 125.376ZM213.564 131.65C214.748 135.101 216.687 137.655 219.399 139.262L219.908 138.402C217.436 136.937 215.631 134.595 214.51 131.326L213.564 131.65ZM219.411 139.269C222.102 140.764 225.602 141.492 229.877 141.492V140.492C225.704 140.492 222.389 139.78 219.896 138.395L219.411 139.269ZM229.877 141.492C236.491 141.492 243.617 139.79 251.248 136.409L250.843 135.495C243.306 138.834 236.32 140.492 229.877 140.492V141.492ZM250.554 136.044L254.154 155.34L255.137 155.156L251.537 135.86L250.554 136.044ZM254.444 154.79C245.585 158.696 235.862 160.652 225.269 160.652V161.652C235.988 161.652 245.85 159.672 254.847 155.706L254.444 154.79ZM235.69 113.221C234.904 110.127 233.564 107.753 231.637 106.155C229.705 104.554 227.232 103.772 224.261 103.772V104.772C227.051 104.772 229.282 105.502 230.998 106.925C232.718 108.351 233.971 110.513 234.721 113.467L235.69 113.221ZM224.261 103.772C220.661 103.772 217.775 105.132 215.659 107.853L216.448 108.467C218.364 106.004 220.95 104.772 224.261 104.772V103.772ZM215.659 107.853C213.562 110.549 212.483 114.021 212.386 118.228L213.385 118.252C213.479 114.203 214.513 110.955 216.448 108.467L215.659 107.853ZM212.993 118.728L235.313 113.832L235.098 112.856L212.778 117.752L212.993 118.728ZM267.989 88.864V88.364H267.489V88.864H267.989ZM298.373 88.864H298.873V88.364H298.373V88.864ZM298.373 103.552H297.873L298.839 103.734L298.373 103.552ZM307.301 91.024L307.593 91.4302L307.595 91.4288L307.301 91.024ZM320.693 86.848L321.185 86.7604L321.112 86.348H320.693V86.848ZM324.869 110.32V110.82H325.466L325.361 110.232L324.869 110.32ZM304.709 113.344L304.916 113.799L304.921 113.797L304.709 113.344ZM298.373 160V160.5H298.873V160H298.373ZM267.989 160H267.489V160.5H267.989V160ZM267.989 89.364H298.373V88.364H267.989V89.364ZM297.873 88.864V103.552H298.873V88.864H297.873ZM298.839 103.734C301.023 98.1315 303.949 94.0463 307.593 91.4302L307.009 90.6178C303.165 93.3776 300.139 97.6445 297.907 103.37L298.839 103.734ZM307.595 91.4288C311.343 88.7113 315.702 87.348 320.693 87.348V86.348C315.508 86.348 310.939 87.7687 307.008 90.6192L307.595 91.4288ZM320.201 86.9356L324.377 110.408L325.361 110.232L321.185 86.7604L320.201 86.9356ZM324.869 109.82C315.731 109.82 308.92 110.827 304.498 112.891L304.921 113.797C309.138 111.829 315.767 110.82 324.869 110.82V109.82ZM304.502 112.889C302.328 113.877 300.664 115.178 299.545 116.805C298.424 118.435 297.873 120.361 297.873 122.56H298.873C298.873 120.535 299.378 118.813 300.369 117.371C301.362 115.926 302.867 114.731 304.916 113.799L304.502 112.889ZM297.873 122.56V160H298.873V122.56H297.873ZM298.373 159.5H267.989V160.5H298.373V159.5ZM268.489 160V88.864H267.489V160H268.489ZM327.665 156.688L328.012 156.329L327.665 156.688ZM327.809 135.664L327.474 135.293L327.809 135.664ZM351.281 135.952L350.933 136.311L350.939 136.317L351.281 135.952ZM351.569 156.976L351.909 157.342L351.916 157.336L351.569 156.976ZM339.617 160.364C334.622 160.364 330.776 159 328.012 156.329L327.317 157.048C330.314 159.944 334.436 161.364 339.617 161.364V160.364ZM328.012 156.329C325.235 153.644 323.845 150.273 323.845 146.176H322.845C322.845 150.527 324.334 154.164 327.317 157.048L328.012 156.329ZM323.845 146.176C323.845 141.985 325.282 138.62 328.144 136.035L327.474 135.293C324.384 138.084 322.845 141.727 322.845 146.176H323.845ZM328.144 136.035C331.009 133.447 334.816 132.132 339.617 132.132V131.132C334.626 131.132 330.561 132.505 327.474 135.293L328.144 136.035ZM339.617 132.132C344.309 132.132 348.065 133.536 350.933 136.311L351.628 135.593C348.544 132.608 344.524 131.132 339.617 131.132V132.132ZM350.939 136.317C353.815 139.008 355.245 142.284 355.245 146.176H356.245C356.245 142.004 354.698 138.464 351.622 135.587L350.939 136.317ZM355.245 146.176C355.245 150.577 353.892 154.038 351.221 156.616L351.916 157.336C354.814 154.538 356.245 150.799 356.245 146.176H355.245ZM351.228 156.61C348.566 159.089 344.721 160.364 339.617 160.364V161.364C344.881 161.364 349.004 160.047 351.909 157.342L351.228 156.61ZM374.453 153.376L374.831 153.048L374.453 153.376ZM367.685 87.856V87.356H367.185V87.856H367.685ZM398.213 87.856H398.713V87.356H398.213V87.856ZM399.941 136.096L399.574 136.435L399.588 136.45L399.602 136.463L399.941 136.096ZM410.597 136.096L411.096 136.057L411.034 135.271L410.349 135.662L410.597 136.096ZM412.181 156.112L412.487 156.508L412.701 156.342L412.68 156.073L412.181 156.112ZM403.829 159.856L403.708 159.371L403.705 159.372L403.829 159.856ZM371.429 72.88L371.087 73.2448L371.093 73.2503L371.099 73.2556L371.429 72.88ZM371.717 52L371.393 51.6196L371.717 52ZM394.325 52.144L393.989 52.514L393.995 52.5189L394.325 52.144ZM394.325 72.88L394.001 72.4996L394.325 72.88ZM393.317 160.652C385.37 160.652 379.231 158.103 374.831 153.048L374.076 153.704C378.7 159.017 385.136 161.652 393.317 161.652V160.652ZM374.831 153.048C370.419 147.979 368.185 141.052 368.185 132.208H367.185C367.185 141.22 369.464 148.405 374.076 153.704L374.831 153.048ZM368.185 132.208V87.856H367.185V132.208H368.185ZM367.685 88.356H398.213V87.356H367.685V88.356ZM397.713 87.856V130.912H398.713V87.856H397.713ZM397.713 130.912C397.713 133.207 398.314 135.07 399.574 136.435L400.309 135.757C399.265 134.626 398.713 133.033 398.713 130.912H397.713ZM399.602 136.463C400.955 137.712 402.665 138.324 404.693 138.324V137.324C402.881 137.324 401.424 136.784 400.281 135.729L399.602 136.463ZM404.693 138.324C406.717 138.324 408.77 137.716 410.846 136.53L410.349 135.662C408.393 136.78 406.51 137.324 404.693 137.324V138.324ZM410.099 136.135L411.683 156.151L412.68 156.073L411.096 136.057L410.099 136.135ZM411.876 155.716C409.833 157.295 407.118 158.518 403.708 159.371L403.951 160.341C407.452 159.466 410.306 158.193 412.487 156.508L411.876 155.716ZM403.705 159.372C400.388 160.225 396.926 160.652 393.317 160.652V161.652C397.005 161.652 400.551 161.215 403.954 160.34L403.705 159.372ZM382.949 76.556C378.55 76.556 374.83 75.2023 371.759 72.5044L371.099 73.2556C374.365 76.1256 378.325 77.556 382.949 77.556V76.556ZM371.771 72.5152C368.798 69.7276 367.321 66.3547 367.321 62.368H366.321C366.321 66.6373 367.917 70.2724 371.087 73.2448L371.771 72.5152ZM367.321 62.368C367.321 58.3928 368.884 55.0737 372.042 52.3804L371.393 51.6196C368.023 54.4943 366.321 58.0872 366.321 62.368H367.321ZM372.042 52.3804C375.217 49.6723 378.846 48.324 382.949 48.324V47.324C378.604 47.324 374.746 48.7597 371.393 51.6196L372.042 52.3804ZM382.949 48.324C387.245 48.324 390.916 49.7205 393.989 52.514L394.662 51.774C391.399 48.8075 387.486 47.324 382.949 47.324V48.324ZM393.995 52.5189C397.164 55.3153 398.721 58.5916 398.721 62.368H399.721C399.721 58.2724 398.015 54.7327 394.656 51.7691L393.995 52.5189ZM398.721 62.368C398.721 66.443 397.156 69.8089 394.001 72.4996L394.65 73.2604C398.023 70.3831 399.721 66.741 399.721 62.368H398.721ZM394.001 72.4996C390.828 75.2058 387.151 76.556 382.949 76.556V77.556C387.387 77.556 391.295 76.1222 394.65 73.2604L394.001 72.4996ZM436.839 156.4L436.613 156.846L436.616 156.847L436.839 156.4ZM422.151 143.296L421.724 143.556L421.73 143.565L422.151 143.296ZM422.295 104.56L422.717 104.829L422.719 104.826L422.295 104.56ZM436.983 91.456L436.765 91.0061L436.762 91.0074L436.983 91.456ZM480.183 91.6L479.957 92.0459L479.965 92.0499L480.183 91.6ZM494.727 143.44L494.304 143.174L494.302 143.176L494.727 143.44ZM480.039 156.544L480.26 156.993L480.263 156.991L480.039 156.544ZM468.375 135.232L467.998 134.904L467.997 134.905L468.375 135.232ZM468.375 112.624L467.992 112.945L467.998 112.952L468.004 112.958L468.375 112.624ZM448.935 112.624L448.558 112.296L448.557 112.297L448.935 112.624ZM448.935 135.232L448.552 135.553L448.558 135.56L448.564 135.566L448.935 135.232ZM458.439 160.652C450.442 160.652 443.32 159.082 437.063 155.953L436.616 156.847C443.03 160.054 450.308 161.652 458.439 161.652V160.652ZM437.066 155.954C430.9 152.824 426.074 148.515 422.573 143.027L421.73 143.565C425.333 149.213 430.298 153.64 436.613 156.846L437.066 155.954ZM422.578 143.036C419.175 137.458 417.467 131.07 417.467 123.856H416.467C416.467 131.234 418.216 137.806 421.724 143.556L422.578 143.036ZM417.467 123.856C417.467 116.645 419.221 110.308 422.717 104.829L421.874 104.291C418.265 109.948 416.467 116.475 416.467 123.856H417.467ZM422.719 104.826C426.219 99.2435 431.044 94.9373 437.204 91.9046L436.762 91.0074C430.443 94.1187 425.475 98.5485 421.872 104.294L422.719 104.826ZM437.201 91.9059C443.46 88.8714 450.584 87.348 458.583 87.348V86.348C450.455 86.348 443.178 87.8966 436.765 91.0061L437.201 91.9059ZM458.583 87.348C466.678 87.348 473.798 88.9189 479.957 92.0458L480.41 91.1542C474.089 87.9451 466.809 86.348 458.583 86.348V87.348ZM479.965 92.0499C486.223 95.0838 491.044 99.3421 494.446 104.824L495.296 104.296C491.786 98.6419 486.816 94.2602 480.401 91.1501L479.965 92.0499ZM494.446 104.824C497.848 110.304 499.555 116.642 499.555 123.856H500.555C500.555 116.478 498.807 109.952 495.296 104.296L494.446 104.824ZM499.555 123.856C499.555 131.164 497.8 137.598 494.304 143.174L495.151 143.706C498.758 137.954 500.555 131.332 500.555 123.856H499.555ZM494.302 143.176C490.899 148.659 486.076 152.967 479.816 156.097L480.263 156.991C486.675 153.785 491.643 149.357 495.152 143.704L494.302 143.176ZM479.818 156.095C473.658 159.128 466.536 160.652 458.439 160.652V161.652C466.663 161.652 473.94 160.104 480.26 156.993L479.818 156.095ZM458.727 140.052C462.803 140.052 466.159 138.553 468.753 135.559L467.997 134.905C465.6 137.671 462.524 139.052 458.727 139.052V140.052ZM468.752 135.56C471.437 132.478 472.763 128.563 472.763 123.856H471.763C471.763 128.365 470.498 132.034 467.998 134.904L468.752 135.56ZM472.763 123.856C472.763 119.149 471.437 115.278 468.747 112.29L468.004 112.958C470.498 115.73 471.763 119.347 471.763 123.856H472.763ZM468.758 112.303C466.166 109.212 462.809 107.66 458.727 107.66V108.66C462.518 108.66 465.593 110.084 467.992 112.945L468.758 112.303ZM458.727 107.66C454.646 107.66 451.245 109.211 448.558 112.296L449.312 112.952C451.81 110.085 454.936 108.66 458.727 108.66V107.66ZM448.557 112.297C445.967 115.286 444.691 119.154 444.691 123.856H445.691C445.691 119.342 446.911 115.722 449.313 112.951L448.557 112.297ZM444.691 123.856C444.691 128.559 445.967 132.471 448.552 135.553L449.318 134.911C446.911 132.041 445.691 128.369 445.691 123.856H444.691ZM448.564 135.566C451.252 138.554 454.652 140.052 458.727 140.052V139.052C454.93 139.052 451.802 137.67 449.307 134.898L448.564 135.566Z" fill="#BCBCBC"/>
</g>
<defs>
<filter id="filter0_d_55:50" x="7.3396" y="36.324" width="510.216" height="128.328" filterUnits="userSpaceOnUse" color-interpolation-filters="sRGB">
<feFlood flood-opacity="0" result="BackgroundImageFix"/>
<feColorMatrix in="SourceAlpha" type="matrix" values="0 0 0 0 0 0 0 0 0 0 0 0 0 0 0 0 0 0 127 0" result="hardAlpha"/>
<feOffset dx="10" dy="-4"/>
<feGaussianBlur stdDeviation="3.5"/>
<feComposite in2="hardAlpha" operator="out"/>
<feColorMatrix type="matrix" values="0 0 0 0 0 0 0 0 0 0 0 0 0 0 0 0 0 0 0.25 0"/>
<feBlend mode="normal" in2="BackgroundImageFix" result="effect1_dropShadow_55:50"/>
<feBlend mode="normal" in="SourceGraphic" in2="effect1_dropShadow_55:50" result="shape"/>
</filter>
</defs>
</svg>
