<svg width="170" height="170" viewBox="0 0 170 170" fill="none" xmlns="http://www.w3.org/2000/svg">
<path d="M87.4074 14.7435C79.4685 14.7435 73.0332 21.1789 73.0332 29.1177C73.0332 37.0566 79.4685 43.4933 87.4074 43.4933C95.3462 43.4933 101.783 37.0566 101.783 29.1177C101.773 21.1831 95.342 14.752 87.4074 14.7435ZM87.4074 37.7431C82.6441 37.7431 78.782 33.881 78.782 29.1177C78.782 24.3544 82.6441 20.4924 87.4074 20.4924C92.1707 20.4924 96.0327 24.3544 96.0327 29.1177C96.0327 33.881 92.1707 37.7431 87.4074 37.7431Z" fill="#F5D28D"/>
<path d="M47.1587 20.4924C40.8076 20.4924 35.6582 25.6418 35.6582 31.9928C35.6582 38.3439 40.8076 43.4933 47.1587 43.4933C53.5098 43.4933 58.6577 38.3439 58.6577 31.9928C58.6577 25.6418 53.5098 20.4924 47.1587 20.4924ZM47.1587 37.7431C43.9817 37.7431 41.4084 35.1684 41.4084 31.9928C41.4084 28.8173 43.9817 26.2426 47.1587 26.2426C50.3342 26.2426 52.9075 28.8173 52.9075 31.9928C52.9075 35.1684 50.3328 37.7431 47.1587 37.7431Z" fill="#F5D28D"/>
<path d="M29.9079 0.367958C25.1446 0.367958 21.2839 4.22999 21.2839 8.99331C21.2839 13.7566 25.1446 17.6173 29.9079 17.6173C34.6712 17.6173 38.5332 13.7566 38.5332 8.99331C38.5332 4.22999 34.6712 0.367958 29.9079 0.367958ZM29.9079 11.8684C28.3201 11.8684 27.0328 10.5811 27.0328 8.99331C27.0328 7.40554 28.3201 6.11819 29.9079 6.11819C31.4957 6.11819 32.783 7.40554 32.783 8.99331C32.783 10.5811 31.4957 11.8684 29.9079 11.8684Z" fill="#F5D28D"/>
<path d="M99.7012 92.7297L105.141 90.8794L123.737 145.532L118.295 147.382L99.7012 92.7297Z" fill="#DA7126"/>
<path d="M84.9929 97.7176L90.4329 95.8659L109.028 150.518L103.587 152.37L84.9929 97.7176Z" fill="#DA7126"/>
<path d="M114.408 87.7151L119.849 85.8648L138.438 140.517L132.998 142.368L114.408 87.7151Z" fill="#DA7126"/>
<path d="M169.129 106.621L155.544 66.6796C152.665 58.2114 143.467 53.6812 134.998 56.5605C134.997 56.5619 134.996 56.5619 134.994 56.5619L127.203 59.2124L126.7 57.7299C123.038 46.9398 111.322 41.1615 100.534 44.8242C96.6505 46.141 93.2489 48.5851 90.7627 51.8449C85.7326 51.4687 80.8205 53.4945 77.5172 57.3074C76.8967 57.1038 76.2636 56.9452 75.6206 56.83C73.4951 56.4608 71.3177 56.5198 69.2148 57.0027C60.9825 49.1214 47.9223 49.4064 40.041 57.6387C37.2122 60.5938 35.324 64.3253 34.6207 68.3558L34.3498 69.9L26.2424 68.4821C17.4318 66.9407 9.04087 72.8327 7.49802 81.6434V81.6462L0.241437 123.201C-1.28737 132.011 4.60325 140.397 13.4083 141.946L21.5128 143.363L21.2545 144.841C17.3209 145.759 14.8767 149.693 15.7949 153.627C16.4631 156.485 18.7753 158.668 21.6686 159.17L82.9053 169.879C83.3222 169.954 83.7434 169.991 84.1645 169.991C87.0228 169.979 89.6115 168.304 90.795 165.703C92.0739 165.995 93.4104 165.92 94.65 165.489L153.51 145.465C157.335 144.163 159.381 140.006 158.079 136.181C157.136 133.407 154.629 131.464 151.707 131.242L151.224 129.825L159.012 127.175C167.474 124.284 171.999 115.09 169.129 106.621ZM122.195 62.3037L123.203 65.2701L103.421 72.0002L102.404 69.0338L122.195 62.3037ZM74.3529 64.4965C75.5644 64.0852 76.842 63.9027 78.1209 63.9603C79.1724 64.0122 80.1649 63.4816 80.7054 62.5803L80.7152 62.5831C82.9712 58.8488 87.3162 56.9185 91.5994 57.7468C92.7646 57.97 93.9481 57.4562 94.5784 56.4496C96.3781 53.5548 99.1283 51.376 102.357 50.2838C109.09 48.0025 116.497 50.7948 120.047 56.9536L97.8185 64.5176C96.3192 65.0328 95.5204 66.6655 96.0328 68.1663L100.322 80.7786C100.925 82.7805 99.7895 84.8919 97.7876 85.4956C95.8854 86.0684 93.8638 85.073 93.1577 83.2157L91.7201 79.0125C91.2583 77.4935 89.6508 76.6372 88.1318 77.1005C86.6129 77.5637 85.7565 79.1698 86.2198 80.6887C86.238 80.7491 86.2577 80.8081 86.2801 80.867C86.9175 82.8591 85.8183 84.9902 83.8262 85.6261C81.8846 86.2467 79.7999 85.2176 79.1106 83.2985L76.2355 74.8894C75.7231 73.3886 74.0918 72.5856 72.5896 73.0952L67.3322 74.8838C67.0963 70.244 69.9588 66.0085 74.3529 64.4965ZM72.7427 82.4492L69.7749 83.4572L68.7697 80.4908L71.7333 79.4842L72.7427 82.4492ZM57.5248 57.2414L57.5332 57.2442C60.8997 57.8198 63.9587 59.5479 66.1908 62.131C66.341 62.2939 66.5123 62.4385 66.6962 62.562C64.4557 64.6622 62.8538 67.3534 62.0761 70.3254L41.0883 66.5673C43.6433 59.9382 50.5237 56.034 57.5248 57.2414ZM39.7982 72.2052L61.6395 76.1093C61.7532 77.1959 61.9792 78.2671 62.3119 79.3059L39.2605 75.281L39.7982 72.2052ZM14.384 136.282C8.70955 135.274 4.92052 129.868 5.90463 124.19L13.1753 82.6331C14.165 76.9531 19.5713 73.15 25.2513 74.1397C25.2569 74.1411 25.2625 74.1411 25.2681 74.1425L33.3699 75.5576L32.8322 78.6447L26.9149 77.6101C21.7276 76.7018 16.786 80.1721 15.8777 85.3594C15.8763 85.3636 15.8763 85.3678 15.8749 85.372L9.37218 122.555C8.46809 127.745 11.9441 132.687 17.1342 133.592L23.0514 134.627L22.5138 137.714L14.384 136.282ZM31.8396 84.3093L24.0342 128.951L18.1126 127.916C16.0546 127.555 14.6774 125.594 15.0382 123.536C15.0382 123.536 15.0396 123.536 15.0396 123.535L21.5423 86.3505C21.9087 84.2939 23.8657 82.9209 25.9238 83.2733L31.8396 84.3093ZM85.713 162.941C85.5628 163.793 84.7499 164.363 83.8978 164.213V164.219L22.6598 153.506C21.8034 153.387 21.2054 152.595 21.3247 151.738C21.4454 150.881 22.2372 150.283 23.0936 150.403C23.1301 150.408 23.1652 150.415 23.2003 150.422C24.7656 150.694 26.2537 149.648 26.5274 148.084L38.275 80.9218L64.4079 85.4928L84.4439 144.405L82.1008 157.799C81.9689 158.55 82.1415 159.322 82.581 159.947C83.0204 160.57 83.6886 160.994 84.4411 161.125C85.2932 161.275 85.8632 162.088 85.713 162.941ZM152.638 138.034C152.917 138.851 152.482 139.74 151.665 140.019C151.664 140.019 151.664 140.02 151.664 140.02L92.8039 160.046C91.984 160.327 91.094 159.891 90.8132 159.071C90.5325 158.251 90.9691 157.361 91.7889 157.08C93.2924 156.569 94.0969 154.936 93.5859 153.433V153.431L71.6294 88.8859L75.0562 87.7207C78.156 91.9562 84.1013 92.8771 88.3354 89.7774C88.8506 89.4011 89.3265 88.973 89.7561 88.4999C90.5493 89.3464 91.4871 90.0413 92.5273 90.5537C97.2527 92.8785 102.969 90.9328 105.295 86.2073C106.412 83.9387 106.581 81.3205 105.767 78.9269L105.262 77.4458L125.046 70.7129L147.006 135.258C147.517 136.762 149.148 137.568 150.653 137.058C150.654 137.057 150.656 137.057 150.657 137.055C151.473 136.782 152.359 137.218 152.638 138.034ZM131.921 73.0587L137.607 71.1242C139.585 70.4503 141.736 71.5075 142.409 73.4855C142.409 73.4869 142.411 73.4897 142.411 73.4925L154.57 109.227C155.241 111.206 154.182 113.355 152.204 114.031L146.517 115.965L131.921 73.0587ZM157.166 121.721L149.378 124.371L148.358 121.405L154.046 119.469C159.028 117.766 161.692 112.354 160.001 107.369L147.84 71.6324C146.135 66.6543 140.726 63.9912 135.741 65.6758L130.055 67.6103L129.049 64.6468L136.857 62.0075C142.321 60.1488 148.257 63.0702 150.117 68.5341L163.692 108.467C165.542 113.928 162.622 119.857 157.166 121.721Z" fill="#DD9745"/>
<path d="M51.0781 154.653L61.0245 97.7892L66.6891 98.7803L56.7413 155.644L51.0781 154.653Z" fill="#DA7126"/>
<path d="M66.4126 157.345L71.9888 123.526L77.6604 124.461L72.0828 158.28L66.4126 157.345Z" fill="#DA7126"/>
<path d="M35.7971 151.963L45.7435 95.0938L51.4081 96.0835L41.4603 152.953L35.7971 151.963Z" fill="#DA7126"/>
</svg>
